<?xml version="1.0" encoding="utf-8"?>
<!-- Generator: Adobe Illustrator 28.0.0, SVG Export Plug-In . SVG Version: 6.00 Build 0)  -->
<svg version="1.1" id="icons" xmlns="http://www.w3.org/2000/svg" xmlns:xlink="http://www.w3.org/1999/xlink" x="0px" y="0px"
	 viewBox="0 0 388.3 77.3" style="enable-background:new 0 0 388.3 77.3;" xml:space="preserve">
<style type="text/css">
	.st0{fill:url(#SVGID_1_);}
	.st1{fill:url(#SVGID_00000142863665735344882800000006460840802323122563_);}
	.st2{fill:url(#SVGID_00000168105789028313527290000016452991479616878516_);}
	.st3{fill:url(#SVGID_00000064347377164640126120000008065961368992784029_);}
	.st4{fill:url(#SVGID_00000103986303228552412350000009437746958267803820_);}
	.st5{fill:url(#SVGID_00000054976254811118789270000010635159328428718492_);}
	.st6{fill:url(#SVGID_00000129925783186517971470000011867634731381394589_);}
	.st7{fill:url(#SVGID_00000048475088391360562550000007746142163089348790_);}
	.st8{fill:url(#SVGID_00000176762525072619347570000013816583883192558005_);}
	.st9{fill:url(#SVGID_00000070840959135141063130000006262977450048850362_);}
	.st10{fill:url(#SVGID_00000060031156655314668360000018359999259942955906_);}
	.st11{fill:url(#SVGID_00000094618093441807717430000015159343602348373148_);}
	.st12{fill:url(#SVGID_00000055705817944859957680000016670006737613196697_);}
	.st13{fill:url(#SVGID_00000150075000740233292390000003542993001149210280_);}
	.st14{fill:url(#SVGID_00000118378343713224075890000013108377389361586576_);}
</style>
<g>
	<linearGradient id="SVGID_1_" gradientUnits="userSpaceOnUse" x1="87.1187" y1="58.513" x2="90.3705" y2="22.2787">
		<stop  offset="0" style="stop-color:#CF40FF"/>
		<stop  offset="0" style="stop-color:#A040FF"/>
		<stop  offset="0.7716" style="stop-color:#2E40FF"/>
		<stop  offset="1" style="stop-color:#2E40FF"/>
	</linearGradient>
	<polygon class="st0" points="79.3,51.1 76.3,57 69.9,57 87.3,22 104.7,57 98.2,57 87.3,35.1 82.2,45.3 	"/>
	
		<linearGradient id="SVGID_00000127731814426927328590000010565397364304091053_" gradientUnits="userSpaceOnUse" x1="114.3942" y1="56.6126" x2="117.5195" y2="21.7872">
		<stop  offset="0" style="stop-color:#CF40FF"/>
		<stop  offset="0" style="stop-color:#A040FF"/>
		<stop  offset="0.7716" style="stop-color:#2E40FF"/>
		<stop  offset="1" style="stop-color:#2E40FF"/>
	</linearGradient>
	<path style="fill:url(#SVGID_00000127731814426927328590000010565397364304091053_);" d="M106.7,51.8c-1.6-1.6-2.8-3.5-3.8-5.6
		c-0.9-2.1-1.4-4.4-1.4-6.7c0-2.4,0.5-4.7,1.4-6.8c0.9-2.1,2.2-3.9,3.8-5.5c1.6-1.6,3.5-2.8,5.6-3.8c2.1-0.9,4.4-1.4,6.8-1.4
		c2.4,0,4.7,0.4,6.8,1.4c2.1,0.9,4,2.2,5.6,3.8l-4.2,4.1c-2.3-2.3-5.1-3.4-8.2-3.4c-1.6,0-3.1,0.3-4.5,0.9c-1.4,0.6-2.7,1.4-3.7,2.5
		c-1,1-1.9,2.3-2.5,3.7c-0.6,1.4-0.9,2.9-0.9,4.5c0,1.6,0.3,3.1,0.9,4.5c0.6,1.4,1.4,2.6,2.5,3.7c1,1.1,2.3,1.9,3.7,2.5
		c1.4,0.6,2.9,0.9,4.5,0.9l6.8,4.5c-2.1,0.9-4.4,1.4-6.8,1.4s-4.7-0.5-6.8-1.4C110.2,54.6,108.3,53.4,106.7,51.8z"/>
	
		<linearGradient id="SVGID_00000085247613111405517450000017186970030436332696_" gradientUnits="userSpaceOnUse" x1="178.4549" y1="58.0529" x2="181.6663" y2="22.2696">
		<stop  offset="0" style="stop-color:#CF40FF"/>
		<stop  offset="0" style="stop-color:#A040FF"/>
		<stop  offset="0.7716" style="stop-color:#2E40FF"/>
		<stop  offset="1" style="stop-color:#2E40FF"/>
	</linearGradient>
	<path style="fill:url(#SVGID_00000085247613111405517450000017186970030436332696_);" d="M195.4,39.5c0,2.4-0.4,4.6-1.4,6.7
		c-1,2.1-2.2,4-3.8,5.6c-1.6,1.6-3.5,2.8-5.6,3.8c-2.1,0.9-4.4,1.4-6.8,1.4l-11.6,0l5.8-5.9l5.8,0c1.6,0,3.1-0.3,4.5-0.9
		c1.4-0.6,2.7-1.4,3.7-2.5c1-1.1,1.9-2.3,2.5-3.7c0.6-1.4,0.9-2.9,0.9-4.5s-0.3-3.1-0.9-4.5c-0.6-1.4-1.4-2.6-2.5-3.7
		c-1-1-2.3-1.9-3.7-2.5c-1.4-0.6-2.9-0.9-4.5-0.9l-5.8,0l-5.8-5.9l11.6,0c2.4,0,4.6,0.5,6.8,1.4c2.1,0.9,4,2.2,5.5,3.8
		c1.6,1.6,2.8,3.5,3.8,5.6C195,34.9,195.4,37.1,195.4,39.5z"/>
	
		<linearGradient id="SVGID_00000138548043598543515910000010890541133690020752_" gradientUnits="userSpaceOnUse" x1="208.8219" y1="57.8606" x2="212.1201" y2="21.1089">
		<stop  offset="0" style="stop-color:#CF40FF"/>
		<stop  offset="0" style="stop-color:#A040FF"/>
		<stop  offset="0.7716" style="stop-color:#2E40FF"/>
		<stop  offset="1" style="stop-color:#2E40FF"/>
	</linearGradient>
	<path style="fill:url(#SVGID_00000138548043598543515910000010890541133690020752_);" d="M222.1,22v5.9l-17.5,0l-5.8-5.9L222.1,22z
		 M204.6,36.6l17.5,0v5.8l-17.5,0h-5.8v-5.8L204.6,36.6z M204.6,51.1l17.5,0V57l-23.3,0v-0.5L204.6,51.1z"/>
	
		<linearGradient id="SVGID_00000143606212789287334560000013470367554303052182_" gradientUnits="userSpaceOnUse" x1="238.7165" y1="57.8142" x2="242.0148" y2="21.0625">
		<stop  offset="0" style="stop-color:#CF40FF"/>
		<stop  offset="0" style="stop-color:#A040FF"/>
		<stop  offset="0.7716" style="stop-color:#2E40FF"/>
		<stop  offset="1" style="stop-color:#2E40FF"/>
	</linearGradient>
	<path style="fill:url(#SVGID_00000143606212789287334560000013470367554303052182_);" d="M252.5,22v5.9l-17.5,0l-5.8-5.9L252.5,22z
		 M235,39.4l17.5,0v5.9l-17.5,0V57l-5.8,0l0-17.5H235z"/>
	
		<linearGradient id="SVGID_00000134235353624342202820000006593709378114413966_" gradientUnits="userSpaceOnUse" x1="270.258" y1="57.8606" x2="273.5562" y2="21.1089">
		<stop  offset="0" style="stop-color:#CF40FF"/>
		<stop  offset="0" style="stop-color:#A040FF"/>
		<stop  offset="0.7716" style="stop-color:#2E40FF"/>
		<stop  offset="1" style="stop-color:#2E40FF"/>
	</linearGradient>
	<path style="fill:url(#SVGID_00000134235353624342202820000006593709378114413966_);" d="M283.6,22v5.9l-17.5,0l-5.8-5.9L283.6,22z
		 M266.1,36.6l17.5,0v5.8l-17.5,0h-5.8v-5.8L266.1,36.6z M266.1,51.1l17.5,0V57l-23.3,0v-0.5L266.1,51.1z"/>
	
		<linearGradient id="SVGID_00000082330926192524646640000005010364900065128329_" gradientUnits="userSpaceOnUse" x1="303.3263" y1="55.5304" x2="306.4384" y2="20.8522">
		<stop  offset="0" style="stop-color:#CF40FF"/>
		<stop  offset="0" style="stop-color:#A040FF"/>
		<stop  offset="0.7716" style="stop-color:#2E40FF"/>
		<stop  offset="1" style="stop-color:#2E40FF"/>
	</linearGradient>
	<path style="fill:url(#SVGID_00000082330926192524646640000005010364900065128329_);" d="M319.3,22v34.9v0v0l-29.1-26.1V22
		l23.2,20.9V22L319.3,22z"/>
	
		<linearGradient id="SVGID_00000021103159220345345440000001924987259046379411_" gradientUnits="userSpaceOnUse" x1="337.6991" y1="56.4388" x2="340.7418" y2="22.5347">
		<stop  offset="0" style="stop-color:#CF40FF"/>
		<stop  offset="0" style="stop-color:#A040FF"/>
		<stop  offset="0.7716" style="stop-color:#2E40FF"/>
		<stop  offset="1" style="stop-color:#2E40FF"/>
	</linearGradient>
	<path style="fill:url(#SVGID_00000021103159220345345440000001924987259046379411_);" d="M334.9,42.4c-2.8,0-5.2-1-7.2-3
		c-2-2-3-4.4-3-7.3c0-2.8,1-5.2,3-7.2c2-2,4.4-3,7.2-3v5.9c-0.6,0-1.2,0.1-1.7,0.3c-0.6,0.2-1,0.5-1.4,1c-0.4,0.4-0.7,0.9-0.9,1.4
		c-0.2,0.5-0.3,1.1-0.3,1.7c0,1.2,0.4,2.2,1.2,3.1c0.9,0.9,1.9,1.3,3.1,1.3h8.7c2.8,0,5.2,1,7.2,3c2,2,3,4.4,3,7.2
		c0,2.8-1,5.2-3,7.2c-2,2-4.4,3-7.2,3v-5.9c0.6,0,1.2-0.1,1.7-0.3c0.6-0.2,1-0.5,1.4-0.9c0.4-0.4,0.7-0.8,0.9-1.4
		c0.2-0.5,0.3-1.1,0.3-1.7c0-1.2-0.5-2.2-1.3-3.1c-0.9-0.9-1.9-1.3-3.1-1.3L334.9,42.4z"/>
	
		<linearGradient id="SVGID_00000013173923337778559180000015349735731401125249_" gradientUnits="userSpaceOnUse" x1="368.7921" y1="57.8606" x2="372.0904" y2="21.1089">
		<stop  offset="0" style="stop-color:#CF40FF"/>
		<stop  offset="0" style="stop-color:#A040FF"/>
		<stop  offset="0.7716" style="stop-color:#2E40FF"/>
		<stop  offset="1" style="stop-color:#2E40FF"/>
	</linearGradient>
	<path style="fill:url(#SVGID_00000013173923337778559180000015349735731401125249_);" d="M382.1,22v5.9l-17.5,0l-5.8-5.9L382.1,22z
		 M364.6,36.6l17.5,0v5.8l-17.5,0l-5.8,0v-5.8H364.6z M364.6,51.1l17.5,0V57l-23.3,0v-0.5L364.6,51.1z"/>
	
		<linearGradient id="SVGID_00000152226506723088118020000017962685066102910639_" gradientUnits="userSpaceOnUse" x1="146.4005" y1="58.5049" x2="149.6523" y2="22.2706">
		<stop  offset="0" style="stop-color:#CF40FF"/>
		<stop  offset="0" style="stop-color:#A040FF"/>
		<stop  offset="0.7716" style="stop-color:#2E40FF"/>
		<stop  offset="1" style="stop-color:#2E40FF"/>
	</linearGradient>
	<polygon style="fill:url(#SVGID_00000152226506723088118020000017962685066102910639_);" points="138.6,51.1 135.6,57 129.1,57 
		146.6,22 163.9,57 157.5,57 146.6,35.1 141.5,45.3 	"/>
</g>
<g>
	<g>
		
			<radialGradient id="SVGID_00000087405134344929279220000013050289259758144146_" cx="41.2792" cy="38.65" r="31.277" gradientUnits="userSpaceOnUse">
			<stop  offset="0" style="stop-color:#2E3EFF"/>
			<stop  offset="0" style="stop-color:#1B8EFF"/>
		</radialGradient>
		<path style="fill:url(#SVGID_00000087405134344929279220000013050289259758144146_);" d="M76,11.2l-2.7,7.7L59.4,34.7L48.2,50
			h-0.1l5.5,8.2l-7.2,6.3L43.3,55l1,11.1h-7l1-11.1l-3,9.6l-7.1-6.4l5.5-8.2l-10.9-15L8.3,19.3l-1.7-7.7l18.8,18.3l6.1,4.4l0.8-3.3
			L29.5,28l6.1,0.7l5.1-1.5l5.2,1.5l6.2-0.7l-2.9,3.2h0l-0.8,0.6c-1.5,1.1-3.6,2.7-5.1,3.8c0,0,0,0,0,0c-0.9,0.7-1.7,1.3-2.5,2
			c-1-0.7-2-1.5-3-2.2l-5.4-4.2l1.6,2.4c0.2,0.3,0.4,0.6,0.5,1c0.1,0.3,0.1,0.5,0.2,0.7c0.4,1.2,1.1,1.7,2.9,1.9
			c1.5,0.1,2.2,0.9,2.8,1.9c0.2,0.3,0.2,0.6,0.4,0.8c0.2-0.3,0.2-0.5,0.4-0.8c0.6-1,1.3-1.8,2.8-1.9c1.5-0.2,2.3-0.6,2.7-1.5
			c0.2-0.3,0.3-0.7,0.4-1.2c0.1-0.4,0.3-0.9,0.5-1.2l1.7-2l1,3.1l6.6-4.5L76,11.2z"/>
	</g>
	<g>
		
			<linearGradient id="SVGID_00000101101370359179595130000004742660210240056760_" gradientUnits="userSpaceOnUse" x1="22.5707" y1="30.7802" x2="13.6492" y2="34.2049">
			<stop  offset="0" style="stop-color:#DC3EFF"/>
			<stop  offset="0" style="stop-color:#2E3EFF"/>
			<stop  offset="1" style="stop-color:#00FFFF"/>
		</linearGradient>
		<polygon style="fill:url(#SVGID_00000101101370359179595130000004742660210240056760_);" points="27.3,43.2 14.5,32.6 8.9,21.8 
			21,34.8 		"/>
	</g>
	<g>
		
			<linearGradient id="SVGID_00000003067555090993218050000004252270537635809928_" gradientUnits="userSpaceOnUse" x1="31.7864" y1="42.2965" x2="16.5271" y2="42.2965">
			<stop  offset="0" style="stop-color:#DC3EFF"/>
			<stop  offset="0" style="stop-color:#2E3EFF"/>
			<stop  offset="1" style="stop-color:#00FFFF"/>
		</linearGradient>
		<polygon style="fill:url(#SVGID_00000003067555090993218050000004252270537635809928_);" points="31.8,49.2 20.6,42.3 16.5,35.4 
			28.2,45.1 		"/>
	</g>
	<g>
		
			<linearGradient id="SVGID_00000031191619397640383440000007224173040597687450_" gradientUnits="userSpaceOnUse" x1="51.9086" y1="38.381" x2="75.1115" y2="26.0765">
			<stop  offset="0" style="stop-color:#DC3EFF"/>
			<stop  offset="0" style="stop-color:#2E3EFF"/>
			<stop  offset="1" style="stop-color:#00FFFF"/>
		</linearGradient>
		<polygon style="fill:url(#SVGID_00000031191619397640383440000007224173040597687450_);" points="72.6,21.4 67.1,32.3 54.4,43.1 
			60.7,34.6 		"/>
	</g>
	<g>
		
			<linearGradient id="SVGID_00000101072006452107374640000003788928153813602460_" gradientUnits="userSpaceOnUse" x1="50.0282" y1="42.1023" x2="65.127" y2="42.1023">
			<stop  offset="0" style="stop-color:#2952FF"/>
			<stop  offset="0.3439" style="stop-color:#275AFF"/>
			<stop  offset="1" style="stop-color:#00FFFF"/>
		</linearGradient>
		<polygon style="fill:url(#SVGID_00000101072006452107374640000003788928153813602460_);" points="65.1,35.1 61.1,42.1 50,49.1 
			53.6,44.9 		"/>
	</g>
</g>
</svg>
