<svg id="Contenido" xmlns="http://www.w3.org/2000/svg" viewBox="0 0 300 300"><defs><style>.cls-1{fill:#363636;}.cls-2{fill:#221f1c;}.cls-3{fill:#ffd911;}.cls-4{fill:#d7d7d7;}.cls-5{fill:#afafaf;}.cls-6{fill:#868686;}.cls-7{fill:#5e5e5e;}</style></defs><g id="Group_1984" data-name="Group 1984"><path id="Path_12748" data-name="Path 12748" class="cls-1" d="M138.83,202.36c3.36,0,4.91,2.12,4.44,5s-2.34,4.84-5.89,4.84h-3.52l1.56-9.87Zm-.15,1.46H136.8l-1.1,6.94h1.81a3.88,3.88,0,0,0,4.14-3.57C142,205,141,203.82,138.68,203.82Z"/><path id="Path_12749" data-name="Path 12749" class="cls-1" d="M154.85,202.36l-.24,1.46h-5.19l-.42,2.69h4.76l-.22,1.47h-4.77l-.43,2.78h5.26l-.23,1.46h-6.88l1.57-9.86Z"/><path id="Path_12750" data-name="Path 12750" class="cls-1" d="M161.91,202.17a5.5,5.5,0,0,1,3,.82l-.22,1.48a4.42,4.42,0,0,0-2.74-.83c-1.23,0-2.1.34-2.23,1.21-.31,2.07,5.37,1.45,4.81,4.92-.32,2-2.16,2.63-4,2.63a6.83,6.83,0,0,1-3.5-.88l.24-1.51a5.71,5.71,0,0,0,3.23.93c1.29,0,2.24-.3,2.39-1.23.36-2.27-5.32-1.59-4.8-5C158.38,203,160.17,202.17,161.91,202.17Z"/><path id="Path_12751" data-name="Path 12751" class="cls-1" d="M172.93,202.36c3.35,0,4.9,2.12,4.44,5s-2.34,4.84-5.9,4.84H168l1.56-9.87Zm-.16,1.46H170.9l-1.1,6.94h1.8a3.89,3.89,0,0,0,4.15-3.57c.35-2.17-.65-3.37-3-3.37Z"/><path id="Path_12752" data-name="Path 12752" class="cls-1" d="M188.94,202.36l-.24,1.46h-5.19l-.42,2.69h4.76l-.22,1.47h-4.76l-.44,2.78h5.26l-.23,1.46h-6.88l1.57-9.86Z"/><path id="Path_12753" data-name="Path 12753" class="cls-1" d="M201.66,202.64l-1.3,8.13h1.71l-.24,1.45h-5.22l.24-1.45h1.92l1-6.48-2,.72.24-1.48,2.47-.89Z"/><path id="Path_12754" data-name="Path 12754" class="cls-1" d="M209.84,202.45c2.76,0,3.95,1.92,3.45,5-.55,3.47-2.69,5-5.16,5a5.22,5.22,0,0,1-2.42-.57l.21-1.41a4.17,4.17,0,0,0,2.16.56c1.51,0,2.92-.76,3.51-3a5.83,5.83,0,0,1-2.79.72c-1.6,0-3.27-1.06-2.94-3.14A3.77,3.77,0,0,1,209.84,202.45Zm-2.37,3.18c-.2,1.3.73,1.69,1.82,1.69a4.47,4.47,0,0,0,2.54-.85c.11-1.9-.69-2.62-2-2.62a2.12,2.12,0,0,0-2.34,1.78Z"/><path id="Path_12755" data-name="Path 12755" class="cls-1" d="M221.84,202.45c2.87,0,4,2.23,3.56,5.08s-2.05,4.88-5,4.88-4-2.23-3.55-5.08S218.9,202.45,221.84,202.45Zm-.09,1.47c-1.87,0-3,1.24-3.32,3.51s.26,3.51,2,3.51,3-1.24,3.35-3.51-.27-3.51-2.08-3.51Z"/><path id="Path_12756" data-name="Path 12756" class="cls-1" d="M233.27,206.13a2.71,2.71,0,0,1,2.89,3.16,3.74,3.74,0,0,1-4,3.12c-2.78,0-4-1.92-3.47-5,.55-3.47,2.72-5,5.16-5a5,5,0,0,1,2.43.59l-.23,1.39a4.13,4.13,0,0,0-2.14-.56c-1.46,0-2.91.76-3.5,3A5.68,5.68,0,0,1,233.27,206.13Zm1.29,3.08c.19-1.26-.72-1.67-1.81-1.67a4.61,4.61,0,0,0-2.55.85c-.13,1.9.66,2.64,2,2.64a2.15,2.15,0,0,0,2.38-1.82Z"/></g><g id="Group_1985" data-name="Group 1985"><path id="Path_12757" data-name="Path 12757" class="cls-1" d="M76.5,148.61a9.6,9.6,0,0,1,4.61,1L80.75,152a6.74,6.74,0,0,0-4-1.09c-3,0-6.52,1.58-7.16,5.74-.72,4.37,2.44,5.77,5,5.77a6.16,6.16,0,0,0,2.51-.47l.94-5.87h2.52l-1.21,7.63a13.24,13.24,0,0,1-5.05,1c-4.07,0-8.26-2.51-7.32-8.39C67.87,151,72.58,148.61,76.5,148.61Z"/><path id="Path_12758" data-name="Path 12758" class="cls-1" d="M81.66,164.48l2.47-15.58h6.18c2.85,0,5.86,1.23,5.26,5a5.26,5.26,0,0,1-4.48,4.45l3.94,6.1H92.18l-3.71-5.83H85.13l-.94,5.83Zm3.85-8.08h3.76c1.74,0,3.43-.69,3.77-2.67s-1.21-2.51-2.88-2.51H86.33Z"/><path id="Path_12759" data-name="Path 12759" class="cls-1" d="M111.21,148.9l-1.56,9.89c-.74,4.54-3.94,6-7.39,6s-6.64-1.62-5.92-6.14l1.55-9.73h2.54l-1.53,9.75c-.47,2.85,1,3.76,3.4,3.76,2.56,0,4.39-1.06,4.85-3.91l1.52-9.6Z"/><path id="Path_12760" data-name="Path 12760" class="cls-1" d="M119.58,148.9c3.28,0,6.37,1.25,5.73,5.28-.61,3.87-3.66,5-7.35,5h-3.14l-.85,5.35h-2.53l2.47-15.59Zm-.13,2.32h-3.36l-.89,5.61h3.14c2.27,0,4.07-.63,4.43-2.9S121.26,151.22,119.45,151.22Z"/><path id="Path_12761" data-name="Path 12761" class="cls-1" d="M133.5,164.77c-5.17,0-7.68-4-7-8.24a9.26,9.26,0,0,1,9.35-7.92c5.09,0,7.7,4,7,8.24A9.16,9.16,0,0,1,133.5,164.77Zm.15-2.38a6.55,6.55,0,0,0,6.66-5.74c.45-2.76-.91-5.66-4.63-5.66a6.52,6.52,0,0,0-6.63,5.75C128.6,159.5,130,162.39,133.65,162.39Z"/></g><g id="Group_1986" data-name="Group 1986"><path id="Path_12762" data-name="Path 12762" class="cls-2" d="M74.85,170.44a16,16,0,0,1,8.31,2.12l-.9,5.87a11.69,11.69,0,0,0-7.2-2.23c-2.59,0-3.74.72-3.81,1.76C71,181.27,84,180.62,82.41,189.4c-1,5.73-5.58,7.31-10.94,7.31A18.26,18.26,0,0,1,62,194.3l1-6.08A13.3,13.3,0,0,0,71.29,191c2.59,0,4.17-.61,4.32-1.72.57-4.14-12.53-2.92-11.09-11.77C65.31,172.63,70,170.44,74.85,170.44Z"/><path id="Path_12763" data-name="Path 12763" class="cls-2" d="M100.9,196.17l-.83-4H89.64l-2,4h-7L94.5,171h7.2l5.9,25.19Zm-8.42-9.36H99l-1.37-7.05a16.06,16.06,0,0,1-.28-2.77,15.86,15.86,0,0,1-1.12,2.7Z"/><path id="Path_12764" data-name="Path 12764" class="cls-2" d="M117.08,171,114,190.23h11.51l-.93,5.94H106.42l4-25.19Z"/><path id="Path_12765" data-name="Path 12765" class="cls-2" d="M137.09,171l-4,25.19h-6.66l4-25.19Z"/><path id="Path_12766" data-name="Path 12766" class="cls-2" d="M135.67,196.17l4-25.19h5.54l8.42,14.32a34.89,34.89,0,0,1,.43-4.07L155.68,171h6.66l-4,25.19H152.8l-8.38-14.29a26.16,26.16,0,0,1-.36,3.75l-1.73,10.54Z"/><path id="Path_12767" data-name="Path 12767" class="cls-2" d="M177.43,196.17l-.83-4H166.17l-2,4h-7L171,171h7.19l5.91,25.19ZM169,186.81h6.48l-1.37-7.05a16.07,16.07,0,0,1-.29-2.77,15.81,15.81,0,0,1-1.11,2.7Z"/><path id="Path_12768" data-name="Path 12768" class="cls-2" d="M197,170.44a16.07,16.07,0,0,1,8.32,2.12l-.9,5.87a11.69,11.69,0,0,0-7.2-2.23c-2.59,0-3.75.72-3.82,1.76-.21,3.31,12.78,2.66,11.16,11.44-1,5.73-5.58,7.31-10.94,7.31a18.26,18.26,0,0,1-9.47-2.41l1-6.08a13.25,13.25,0,0,0,8.31,2.73c2.59,0,4.17-.61,4.32-1.72.57-4.14-12.53-2.92-11.09-11.77C187.46,172.63,192.14,170.44,197,170.44Z"/></g><path id="Path_12769" data-name="Path 12769" class="cls-3" d="M233.5,145.59A45.79,45.79,0,0,1,217,180.71c-.93.77-.91,1.93,0,2.23s1.94-.54,2.64-1.15a53.63,53.63,0,0,0,18.32-40c.21-29.66-24.11-54-53.78-54.18-25.36-.13-43.55,16.65-49.88,32.36-2.89,7.17,2.57,15.51,10.3,15.42C146,131.83,153.08,99,188,99.91c25.13.67,45.52,20.45,45.52,45.67"/><path id="Path_12770" data-name="Path 12770" class="cls-1" d="M158.58,129a6.2,6.2,0,1,1,6.19,6.2h0a6.2,6.2,0,0,1-6.19-6.2h0"/><path id="Path_12771" data-name="Path 12771" class="cls-4" d="M150.54,156.15a56.93,56.93,0,0,0,34,11.34,55.94,55.94,0,0,0,34.95-11.74s2.23-1.52.46-3c-1.27-1.05-3.13.11-4.06.75A57.82,57.82,0,0,1,184.77,164a57,57,0,0,1-34.17-9.9s-1-.87-1.3.27c-.18.72,1.24,1.8,1.24,1.8"/><path id="Path_12772" data-name="Path 12772" class="cls-5" d="M207.41,149.71a59.28,59.28,0,0,1-21.7,7.3,57.76,57.76,0,0,1-35.14-7s-1.08-.78-1.27.38c-.12.74,1.39,1.68,1.39,1.68a57.74,57.74,0,0,0,35.09,8.46,56.94,56.94,0,0,0,24.93-8.12,16.6,16.6,0,0,0,2.7-1.71,1.9,1.9,0,0,0,.23-2.68,1.67,1.67,0,0,0-.33-.32c-1.15-.9-2.12-.23-2.88.17-.3.16-1.2.84-3,1.85"/><path id="Path_12773" data-name="Path 12773" class="cls-6" d="M200.86,144.58A58.79,58.79,0,0,1,186,149.93a57.37,57.37,0,0,1-35.49-3.9s-1.14-.69-1.24.49c-.06.74,1.53,1.56,1.53,1.56a57.52,57.52,0,0,0,53.53-.92s1.52-.8,2.42-1.37,1.51-1.87,0-3c-1.13-.88-2.55,0-3.21.34-.26.14-1.69,1-2.69,1.48"/><path id="Path_12774" data-name="Path 12774" class="cls-7" d="M194,139.54a56.92,56.92,0,0,1-43.53,2.75s-1.19-.58-1.18.61c0,.74,1.66,1.41,1.66,1.41a55.7,55.7,0,0,0,35.35,2,57.52,57.52,0,0,0,11.15-4.23s1.19-.63,2.28-1.27a1.68,1.68,0,0,0,.2-2.86,3,3,0,0,0-2.89,0c-.48.28-2,1.09-3,1.6"/><path id="Path_12775" data-name="Path 12775" class="cls-1" d="M184.67,135.77c-11.74,4.71-22.87,5.46-34.24,2.54,0,0-1.24-.48-1.13.7.07.74,1.77,1.26,1.77,1.26,11.33,3.43,22.57,3.17,34.57-1.13q2.61-.93,5.09-2.1a13.9,13.9,0,0,0,2-1,1.56,1.56,0,0,0,.23-2.77c-1.25-1-3.15.19-3.73.47-1.3.62-3.44,1.55-4.58,2"/></svg>