<?xml version="1.0" encoding="utf-8"?>
<!-- Generator: Adobe Illustrator 22.0.1, SVG Export Plug-In . SVG Version: 6.00 Build 0)  -->
<svg version="1.1" id="Ebene_1" xmlns="http://www.w3.org/2000/svg" xmlns:xlink="http://www.w3.org/1999/xlink" x="0px" y="0px"
	 viewBox="0 0 125 46" style="enable-background:new 0 0 125 46;" xml:space="preserve">
<style type="text/css">
	.st0{fill:#4A4944;}
</style>
<path class="st0" d="M102.7,23.7c-0.6-0.5-1.5-0.5-2.1,0.1c-1.1,1.2-2.6,1.9-4.2,1.9h-0.9c-3.2-0.1-5.7-2.7-5.7-5.8v-2.5
	c0-3.2,2.5-5.8,5.7-5.8h0.9c1.6,0,3.1,0.7,4.2,1.9c0.5,0.6,1.5,0.7,2.1,0.1c0.6-0.5,0.7-1.5,0.1-2.1c-1.6-1.8-3.9-2.9-6.4-2.9h-0.9
	c-4.8,0.1-8.7,4-8.6,8.8v2.5c0,4.8,3.8,8.8,8.6,8.8h0.9c2.4,0,4.8-1.1,6.4-2.9C103.4,25.2,103.3,24.2,102.7,23.7
	C102.7,23.7,102.7,23.7,102.7,23.7z"/>
<path class="st0" d="M79.8,17.5l-6.9-1.4c-0.9-0.2-1.5-0.8-1.7-1.7c-0.2-0.8,0.2-1.7,0.9-2.1c0.8-0.5,1.6-0.7,2.6-0.7h2.7
	c1.3,0.1,2.6,0.7,3.4,1.8c0.5,0.6,1.4,0.8,2.1,0.3c0.6-0.5,0.8-1.4,0.3-2c-1.3-1.9-3.5-3-5.8-3h-2.7c-1.5,0-2.9,0.4-4.1,1.2
	c-1.8,1.1-2.7,3.1-2.3,5.2c0.4,2,1.9,3.7,4,4.1l6.9,1.4c1,0.2,1.7,0.9,1.9,1.9c0.2,0.9-0.2,1.9-0.9,2.4c-0.9,0.7-2.1,1-3.2,1h-2.2
	c-1.6,0-3.1-0.7-4.2-1.9c-0.5-0.6-1.5-0.7-2.1-0.1c-0.6,0.5-0.7,1.5-0.1,2.1c0,0,0,0,0,0c1.6,1.8,4,2.9,6.4,2.9h2.2
	c1.8,0,3.5-0.5,4.9-1.6c2.4-1.7,3-5.1,1.2-7.5C82.3,18.5,81.1,17.7,79.8,17.5L79.8,17.5z"/>
<path class="st0" d="M61.7,17.1h-7.9c-0.8,0-1.5,0.7-1.5,1.5s0.7,1.5,1.5,1.5h7.9c1.7,0,3.1-1.4,3.1-3.1c0-4.6-3.8-8.4-8.4-8.4h-1.3
	c-4.7,0-8.4,3.8-8.4,8.4v3.2c0,4.7,3.8,8.4,8.4,8.4h2.3c2.4,0,4.8-1.1,6.4-2.9c0.5-0.6,0.5-1.6-0.1-2.1c-0.6-0.5-1.6-0.5-2.1,0.1
	c-1,1.2-2.5,1.9-4.1,1.9h-2.3c-3,0-5.5-2.5-5.5-5.5V17c0-3,2.5-5.5,5.5-5.4h1.3c3,0,5.5,2.4,5.5,5.4C61.8,17.1,61.8,17.1,61.7,17.1z
	"/>
<path class="st0" d="M43.6,25.7c-0.9,0-1.8-0.2-2.6-0.7c-0.6-0.4-1-1.1-1-1.8V2.7c0-0.8-0.7-1.4-1.6-1.4c-0.8,0-1.4,0.6-1.4,1.4v6.7
	c-1.1-0.6-2.3-0.8-3.5-0.8h-1.5c-0.8,0-1.4,0.7-1.4,1.6c0,0.8,0.6,1.4,1.4,1.4h1.5c0.9,0,1.8,0.2,2.6,0.7c0.6,0.4,1,1.1,1,1.8v9
	c0,1.8,0.9,3.4,2.4,4.3c1.2,0.8,2.7,1.2,4.1,1.2c0.8,0,1.4-0.7,1.4-1.6C45,26.3,44.4,25.7,43.6,25.7L43.6,25.7z"/>
<path class="st0" d="M30.2,25.7c-0.9,0-1.8-0.3-2.6-0.7c-0.6-0.4-1-1.1-1-1.8V10.1c0-0.8-0.7-1.5-1.5-1.5c-0.8,0-1.5,0.7-1.5,1.5
	v13.1c0,1.8,0.9,3.4,2.4,4.3c1.2,0.8,2.7,1.2,4.1,1.2c0.8,0,1.4-0.7,1.4-1.6C31.6,26.3,31,25.7,30.2,25.7L30.2,25.7z"/>
<path class="st0" d="M18.4,8.7c-0.8-0.3-1.6,0.1-1.9,0.9c0,0,0,0,0,0l-5.7,15.6c-0.1,0.3-0.4,0.5-0.7,0.5l0,0
	c-0.3,0-0.6-0.2-0.7-0.5L3.7,9.5C3.4,8.8,2.5,8.4,1.8,8.8c-0.7,0.3-1.1,1.1-0.8,1.8l5.7,15.6c0.5,1.5,1.9,2.4,3.5,2.5l0,0
	c1.6,0,3-1,3.5-2.4l5.7-15.6C19.6,9.8,19.2,9,18.4,8.7z"/>
<path class="st0" d="M122.5,15.9c-0.8,0-1.5,0.7-1.5,1.5v2.5c0,3.2-2.5,5.8-5.7,5.8h-0.9c-3.2-0.1-5.7-2.7-5.7-5.8v-2.5
	c0-3.2,2.5-5.8,5.7-5.8h2.8c0.8,0,1.4-0.7,1.4-1.6c0-0.8-0.6-1.4-1.4-1.4h-2.8c-4.8,0.1-8.7,4-8.6,8.8v2.5c0,4.8,3.8,8.8,8.6,8.8
	h0.9c4.8-0.1,8.7-4,8.6-8.8v-2.5C124,16.6,123.3,15.9,122.5,15.9z"/>
<path class="st0" d="M16.6,37.9H14v6.8h-1.4v-6.8h-2.6v-1.2h6.5V37.9z"/>
<path class="st0" d="M25.5,43.6v1.2h-5.9v-8h5.8v1.2h-4.4V40h4v1.2h-4v2.4H25.5z"/>
<path class="st0" d="M29.9,44.4c-0.6-0.4-1-0.9-1.3-1.5c-0.3-0.7-0.5-1.5-0.5-2.2c0-0.8,0.2-1.5,0.5-2.2c0.3-0.6,0.7-1.1,1.3-1.5
	c0.6-0.4,1.2-0.5,1.9-0.5c0.6,0,1.1,0.1,1.6,0.3c0.5,0.2,0.9,0.5,1.2,1c0.3,0.4,0.5,0.9,0.5,1.4h-1.3c-0.1-0.4-0.3-0.8-0.7-1.1
	c-0.4-0.3-0.8-0.4-1.3-0.4c-0.5,0-0.9,0.1-1.3,0.4c-0.4,0.3-0.7,0.6-0.8,1c-0.2,0.5-0.3,1-0.3,1.6c0,0.6,0.1,1.1,0.3,1.6
	c0.2,0.4,0.4,0.8,0.8,1.1c0.4,0.3,0.8,0.4,1.3,0.4c0.5,0,1-0.1,1.4-0.5c0.4-0.4,0.6-0.8,0.6-1.3h1.3c-0.1,0.6-0.2,1.1-0.5,1.6
	c-0.3,0.4-0.7,0.8-1.2,1C33,44.9,32.4,45,31.8,45C31.1,45,30.5,44.8,29.9,44.4z"/>
<path class="st0" d="M44.8,36.7v8h-1.4v-3.6h-3.7v3.6h-1.4v-8h1.4v3.2h3.7v-3.2H44.8z"/>
<path class="st0" d="M54.9,36.7v8h-1.4l-3.7-5.9v5.9h-1.3v-8h1.4l3.7,5.9v-5.9H54.9z"/>
<path class="st0" d="M59.6,44.4c-0.6-0.4-1.1-0.9-1.4-1.5c-0.3-0.7-0.5-1.5-0.5-2.2c0-0.8,0.2-1.5,0.5-2.2c0.3-0.6,0.8-1.1,1.4-1.5
	c0.6-0.3,1.3-0.5,1.9-0.5c0.7,0,1.4,0.2,2,0.5c0.6,0.4,1.1,0.9,1.4,1.5c0.3,0.7,0.5,1.4,0.5,2.2c0,0.8-0.2,1.5-0.5,2.2
	c-0.3,0.6-0.8,1.1-1.4,1.5c-0.6,0.4-1.3,0.5-2,0.5C60.9,45,60.2,44.8,59.6,44.4z M62.9,43.4c0.4-0.3,0.7-0.6,0.9-1.1
	c0.2-0.5,0.3-1.1,0.3-1.6c0-0.5-0.1-1.1-0.3-1.6c-0.2-0.4-0.5-0.8-0.9-1c-0.8-0.5-1.8-0.5-2.6,0c-0.4,0.3-0.7,0.6-0.9,1
	c-0.2,0.5-0.3,1-0.3,1.6c0,0.6,0.1,1.1,0.3,1.6c0.2,0.4,0.5,0.8,0.9,1.1C61.1,43.9,62.1,43.9,62.9,43.4L62.9,43.4z"/>
<path class="st0" d="M73.5,43.5v1.2H68v-8h1.4v6.8H73.5z"/>
<path class="st0" d="M77.1,44.4c-0.6-0.4-1.1-0.9-1.4-1.5c-0.3-0.7-0.5-1.5-0.5-2.2c0-0.8,0.2-1.5,0.5-2.2c0.3-0.6,0.8-1.1,1.4-1.5
	c1.2-0.7,2.7-0.7,3.9,0c0.6,0.4,1.1,0.9,1.4,1.5c0.3,0.7,0.5,1.4,0.5,2.2c0,0.8-0.2,1.5-0.5,2.2c-0.6,1.3-1.9,2.1-3.3,2
	C78.3,45,77.7,44.8,77.1,44.4z M80.3,43.4c0.4-0.3,0.7-0.6,0.9-1.1c0.2-0.5,0.3-1.1,0.3-1.6c0-0.5-0.1-1.1-0.3-1.6
	c-0.2-0.4-0.5-0.8-0.9-1c-0.8-0.5-1.8-0.5-2.6,0c-0.4,0.3-0.7,0.6-0.9,1c-0.2,0.5-0.3,1-0.3,1.6c0,0.6,0.1,1.1,0.3,1.6
	c0.2,0.4,0.5,0.8,0.9,1.1C78.5,43.9,79.5,43.9,80.3,43.4L80.3,43.4z"/>
<path class="st0" d="M92.4,40.4v4.3h-0.9l-0.3-1c-0.2,0.4-0.6,0.7-1,0.9c-0.4,0.2-0.9,0.3-1.4,0.3c-0.7,0-1.3-0.2-1.9-0.5
	c-0.6-0.4-1-0.9-1.3-1.5c-0.6-1.4-0.6-3,0-4.4c0.3-0.6,0.8-1.1,1.3-1.5c0.6-0.4,1.3-0.5,2-0.5c0.6,0,1.1,0.1,1.7,0.3
	c0.5,0.2,0.9,0.5,1.2,0.9c0.3,0.4,0.5,0.9,0.6,1.4L91,39.2c-0.1-0.4-0.3-0.9-0.7-1.1c-0.4-0.3-0.9-0.4-1.3-0.4
	c-0.5,0-0.9,0.1-1.4,0.4c-0.4,0.3-0.7,0.6-0.9,1c-0.2,0.5-0.3,1-0.3,1.6c0,0.5,0.1,1.1,0.3,1.6c0.2,0.4,0.5,0.8,0.9,1.1
	c0.4,0.3,0.8,0.4,1.3,0.4c0.4,0,0.7-0.1,1.1-0.2c0.3-0.2,0.6-0.4,0.8-0.7c0.2-0.3,0.4-0.7,0.4-1.1v-0.2H89v-1.2L92.4,40.4z"/>
<path class="st0" d="M95.9,36.7h1.4v8h-1.4L95.9,36.7z"/>
<path class="st0" d="M106.5,43.6v1.2h-5.9v-8h5.8v1.2h-4.4V40h4v1.2h-4v2.4H106.5z"/>
<path class="st0" d="M109.6,44.3c-0.6-0.5-0.9-1.3-0.9-2.1h1.3c0,0.5,0.2,0.9,0.6,1.2c0.4,0.3,0.9,0.4,1.4,0.4
	c0.5,0,0.9-0.1,1.3-0.3c0.3-0.2,0.5-0.6,0.4-0.9c0-0.2,0-0.4-0.2-0.6c-0.1-0.2-0.3-0.3-0.5-0.4c-0.3-0.1-0.5-0.2-0.8-0.3l-1.3-0.3
	c-0.6-0.1-1.1-0.4-1.6-0.8c-0.4-0.4-0.6-0.9-0.6-1.4c0-0.4,0.1-0.9,0.3-1.2c0.2-0.4,0.6-0.7,1-0.9c0.5-0.2,1.1-0.3,1.6-0.3
	c0.6,0,1.1,0.1,1.6,0.3c0.4,0.2,0.8,0.5,1.1,0.9c0.3,0.4,0.4,0.9,0.4,1.4h-1.3c0-0.4-0.2-0.8-0.6-1.1c-0.4-0.3-0.8-0.4-1.3-0.4
	c-0.4,0-0.8,0.1-1.2,0.3c-0.3,0.2-0.4,0.5-0.4,0.8c0,0.3,0.1,0.5,0.3,0.7c0.3,0.2,0.6,0.3,0.9,0.4l1.5,0.3c0.6,0.1,1.2,0.4,1.7,0.8
	c0.4,0.4,0.6,0.9,0.6,1.5c0,0.5-0.1,0.9-0.4,1.3c-0.3,0.4-0.6,0.7-1.1,0.9c-0.6,0.2-1.1,0.3-1.7,0.3C111.1,45,110.2,44.7,109.6,44.3
	z"/>
</svg>
