<?xml version="1.0" encoding="UTF-8"?>
<svg width="256px" height="83px" viewBox="0 0 256 83" version="1.1" xmlns="http://www.w3.org/2000/svg" xmlns:xlink="http://www.w3.org/1999/xlink">
    <defs>
        <polygon id="path-1" points="0 81.3468034 256.420865 81.3468034 256.420865 0 0 0"></polygon>
    </defs>
    <g id="--COMPONENTS-/-Atoms-/-Logo-/-Longversion-/-White" stroke="none" stroke-width="1" fill="none" fill-rule="evenodd">
        <g id="Group-12" transform="translate(0.000000, 1.000000)">
            <path d="M123.59569,32.9769658 L111.234202,32.9769658 C109.79132,32.9769658 109.518037,33.0540598 109.518037,34.3338205 L109.518037,34.8370342 C109.518037,35.5743333 109.947786,35.7677692 110.999858,35.961906 C110.999858,35.961906 118.838004,37.3965556 119.735734,37.5507436 C124.414833,38.4422308 125.350794,40.225906 125.350794,44.0252393 L125.350794,47.2814103 C125.350794,52.0885726 123.167356,54.3754615 116.265172,54.3369145 C110.999858,54.3369145 102.460094,53.7166581 102.460094,53.7166581 L102.538681,48.1336496 L115.36815,48.1336496 C117.552296,48.1336496 118.292852,47.7467778 118.292852,46.1179915 L118.292852,44.9552735 C118.292852,44.374265 118.176034,43.8311026 117.279012,43.6762137 C116.34305,43.4827778 110.415767,42.4357009 109.79132,42.319359 C104.68318,41.4278718 102.26469,41.0788462 102.26469,36.2331368 L102.26469,33.7521111 C102.26469,28.9064017 104.605301,26.7744017 111.507486,26.7744017 C116.772092,26.7744017 123.674276,27.3946581 123.674276,27.3946581 L123.59569,32.9769658 Z" id="Fill-1" fill="#FFFFFF"></path>
            <path d="M138.056931,42.1260632 L144.724771,42.1260632 L141.956534,32.4346444 L140.825876,32.4346444 L138.056931,42.1260632 Z M146.284471,47.9796017 L136.535463,47.9796017 L134.741418,54.1429179 L127.020091,54.1429179 C127.020091,54.1429179 134.820713,29.720935 135.365865,28.0921487 C135.678088,27.0450718 135.794906,27.0072256 137.198848,27.0072256 L145.621793,27.0072256 C147.025735,27.0072256 147.142553,27.0450718 147.454069,28.0921487 C147.961697,29.720935 155.760903,54.1429179 155.760903,54.1429179 L148.078515,54.1429179 L146.284471,47.9796017 Z" id="Fill-3" fill="#FFFFFF"></path>
            <mask id="mask-2" fill="white">
                <use xlink:href="#path-1"></use>
            </mask>
            <g id="Clip-6"></g>
            <polygon id="Fill-5" fill="#FFFFFF" mask="url(#mask-2)" points="159.027777 54.1431282 166.086427 54.1431282 166.086427 27.0074359 159.027777 27.0074359"></polygon>
            <path d="M188.076565,37.7837077 L188.076565,35.4582718 C188.076565,33.7131436 187.296361,32.7445624 185.26868,32.7445624 L178.444375,32.7445624 L178.444375,40.4974171 L185.26868,40.4974171 C187.296361,40.4974171 188.076565,39.489588 188.076565,37.7837077 Z M178.444375,54.1430581 L171.385725,54.1430581 L171.385725,27.0073658 L187.179543,27.0073658 C192.444149,27.0073658 195.135215,29.9916051 195.135215,34.0229214 L195.135215,39.1798103 C195.135215,43.2111265 192.444149,46.2346137 187.179543,46.2346137 L178.444375,46.2346137 L178.444375,54.1430581 Z" id="Fill-7" fill="#FFFFFF" mask="url(#mask-2)"></path>
            <polygon id="Fill-8" fill="#FFFFFF" mask="url(#mask-2)" points="199.454231 27.0070855 220.162201 27.0070855 220.162201 32.7442821 206.513589 32.7442821 206.513589 37.4736496 218.094873 37.4736496 218.094873 43.3664359 206.513589 43.3664359 206.513589 48.0565556 220.122553 48.0565556 220.122553 54.1427778 199.454231 54.1427778"></polygon>
            <path d="M247.022878,27.3561111 C247.022878,27.3561111 247.100048,27.0070855 247.490858,27.0070855 L256.420723,27.0070855 L256.420723,54.1427778 L249.362781,54.1427778 L249.362781,39.4122137 L248.972679,39.4122137 L244.176054,53.6381624 C244.176054,53.6381624 244.058528,54.1427778 243.590547,54.1427778 L237.936547,54.1427778 C237.428919,54.1427778 237.312101,53.6381624 237.312101,53.6381624 L232.516183,39.4122137 L232.126082,39.4122137 L232.126082,54.1427778 L225.067431,54.1427778 L225.067431,27.0070855 L233.998712,27.0070855 C234.387398,27.0070855 234.466693,27.3561111 234.466693,27.3561111 L240.588674,43.4827778 L240.900897,43.4827778 L247.022878,27.3561111 Z" id="Fill-9" fill="#FFFFFF" mask="url(#mask-2)"></path>
            <polygon id="Fill-10" fill="#E98300" mask="url(#mask-2)" points="18.1391733 29.5391333 18.1391733 42.9780222 64.0352669 51.8080906 64.0352669 38.3706034"></polygon>
            <path d="M68.3822485,67.6022017 L43.1070419,67.6898085 L43.1070419,81.3466632 L82.1738738,81.3466632 L82.1738738,41.8633128 L68.3822485,39.195159 L68.3822485,67.6022017 Z M43.1070419,-0.00014017094 L43.1070419,13.5396718 L68.3822485,13.5396718 L68.3822485,20.3092274 L82.1738738,20.3092274 L82.1738738,-0.00014017094 L43.1070419,-0.00014017094 Z M13.675232,60.9272615 L-0.000283195592,60.9272615 L-0.000283195592,81.3466632 L39.0672567,81.3466632 L39.0672567,67.6898085 L13.675232,67.6898085 L13.675232,60.9272615 Z M-0.000283195592,39.4755009 L13.675232,42.1065094 L13.675232,13.5396718 L39.0672567,13.5396718 L39.0672567,-0.00014017094 L-0.000283195592,-0.00014017094 L-0.000283195592,39.4755009 Z" id="Fill-11" fill="#FFFFFF" mask="url(#mask-2)"></path>
        </g>
    </g>
</svg>